<?xml version="1.0" standalone="no"?><!DOCTYPE svg PUBLIC "-//W3C//DTD SVG 1.1//EN" "http://www.w3.org/Graphics/SVG/1.1/DTD/svg11.dtd"><svg t="1543648264339" class="icon" style="" viewBox="0 0 2308 1024" version="1.1" xmlns="http://www.w3.org/2000/svg" p-id="5733" xmlns:xlink="http://www.w3.org/1999/xlink" width="450.78125" height="200"><defs><style type="text/css"></style></defs><path d="M963.629851 894.853731c-68.01194 0-120.740299-29.038806-120.740299-66.483582s52.728358-66.483582 120.740299-66.483582 120.740299 29.038806 120.740299 66.483582c0 4.585075-3.056716 7.641791-7.641791 7.641791s-7.641791-3.056716-7.641791-7.641791c0-27.510448-48.143284-51.2-105.456716-51.2-57.313433 0-105.456716 23.689552-105.456716 51.2 0 27.510448 48.143284 51.2 105.456716 51.2 4.585075 0 7.641791 3.056716 7.641791 7.641791S968.214925 894.853731 963.629851 894.853731z" p-id="5734" fill="#1296db"></path><path d="M663.307463 902.495522c-37.444776 0-67.247761-17.576119-67.247761-40.501493 0-4.585075 1.528358-9.934328 3.820896-14.519403 2.292537-3.820896 6.877612-4.585075 10.698507-3.056716 3.820896 2.292537 4.585075 6.877612 3.056716 10.698507-1.528358 2.292537-1.528358 4.585075-1.528358 6.113433 0 12.226866 21.397015 25.21791 51.964179 25.21791s51.964179-13.755224 51.964179-25.21791c0-12.226866-21.397015-25.21791-51.964179-25.21791-4.585075 0-7.641791-3.056716-7.641791-7.641791s3.056716-7.641791 7.641791-7.641791c37.444776 0 67.247761 17.576119 67.247761 40.501493S701.516418 902.495522 663.307463 902.495522z" p-id="5735" fill="#1296db"></path><path d="M258.292537 854.352239c-3.056716 0-6.113433-2.292537-7.641791-5.349254-2.292537-8.40597-54.256716-200.214925 31.331343-224.668657 14.519403-3.820896 29.038806-2.292537 42.029851 6.113433 53.492537 32.859701 77.946269 155.128358 78.710448 159.713433 0.764179 3.820896-1.528358 8.40597-6.113433 9.170149-3.820896 0.764179-8.40597-1.528358-9.170149-6.113433 0-1.528358-24.453731-120.740299-71.832836-149.779104-9.934328-6.113433-19.868657-7.641791-29.802985-4.585075-58.841791 16.81194-35.152239 154.364179-21.397015 206.328358 0.764179 3.820896-1.528358 8.40597-5.349254 9.170149C259.820896 854.352239 259.056716 854.352239 258.292537 854.352239z" p-id="5736" fill="#1296db"></path><path d="M569.313433 749.659701c-3.820896 0-6.877612-3.056716-7.641791-6.877612 0-2.292537-37.444776-247.59403-126.853731-309.492537-18.340299-12.226866-36.680597-16.047761-56.549254-11.462687-83.295522 19.104478-55.785075 208.620896-55.785075 210.149254 0.764179 3.820896-2.292537 8.40597-6.113433 8.40597-3.820896 0.764179-8.40597-2.292537-8.40597-6.113433C305.671642 626.626866 277.397015 429.468657 374.447761 407.307463c24.453731-5.349254 47.379104-0.764179 68.776119 13.755224 95.522388 65.719403 132.202985 309.492537 133.731343 319.426866 0.764179 3.820896-2.292537 8.40597-6.113433 8.40597C570.077612 749.659701 570.077612 749.659701 569.313433 749.659701z" p-id="5737" fill="#1296db"></path><path d="M2064.81194 944.525373c-1.528358 0-2.292537 0-3.056716-0.764179-3.820896-1.528358-5.349254-6.113433-3.056716-9.934328 19.104478-38.973134 60.370149-145.19403 16.047761-167.355224-61.134328-31.331343-133.731343 94.758209-134.495522 96.286567-2.292537 3.820896-6.877612 4.585075-10.698507 3.056716-3.820896-2.292537-4.585075-6.877612-3.056716-10.698507 3.056716-6.113433 81.002985-139.844776 154.364179-102.4 66.483582 33.623881-6.113433 181.110448-9.170149 187.98806C2070.161194 942.997015 2067.868657 944.525373 2064.81194 944.525373z" p-id="5738" fill="#1296db"></path><path d="M681.647761 724.441791c-3.820896 0-6.877612-2.292537-7.641791-6.113433L626.626866 465.385075c-0.764179-3.820896 2.292537-8.40597 6.113433-9.170149 3.820896-0.764179 8.40597 2.292537 9.170149 6.113433l48.143284 252.943284c0.764179 3.820896-2.292537 8.40597-6.113433 9.170149C683.176119 724.441791 682.41194 724.441791 681.647761 724.441791z" p-id="5739" fill="#1296db"></path><path d="M622.80597 603.701493c-18.340299 0-26.746269-17.576119-29.038806-26.746269l-14.519403-76.41791c-0.764179-3.820896 2.292537-8.40597 6.113433-9.170149 3.820896-0.764179 8.40597 2.292537 9.170149 6.113433l14.519403 76.41791c0 1.528358 3.056716 15.283582 15.283582 14.519403 6.877612-0.764179 12.226866-0.764179 16.81194-1.528358 4.585075-0.764179 10.698507-0.764179 17.576119-1.528358 3.820896 0 7.641791 3.056716 8.40597 6.877612 0 3.820896-3.056716 7.641791-6.877612 8.40597-0.764179 0-2.292537 0-3.056716 0l0 0c0 0-1.528358 0-4.585075 0-1.528358 0-3.820896 0-6.113433 0.764179L634.268657 602.937313c-0.764179 0-2.292537 0-3.056716 0-1.528358 0-2.292537 0-2.292537 0l0 0c-1.528358 0-2.292537 0-3.820896 0C624.334328 603.701493 623.570149 603.701493 622.80597 603.701493z" p-id="5740" fill="#1296db"></path><path d="M670.185075 661.779104c-3.056716 0-6.113433-2.292537-7.641791-5.349254-1.528358-3.820896 0.764179-8.40597 5.349254-9.170149 6.877612-2.292537 12.226866-3.820896 16.81194-5.349254 4.585075-1.528358 9.934328-3.056716 16.047761-4.585075 11.462687-3.820896 8.40597-18.340299 8.40597-19.104478l-19.868657-103.164179c-0.764179-3.820896 2.292537-8.40597 6.113433-9.170149 3.820896-0.764179 8.40597 2.292537 9.170149 6.113433l19.868657 103.164179c2.292537 9.934328 0.764179 30.567164-19.104478 36.680597-1.528358 0.764179-2.292537 0.764179-3.820896 0.764179l0 0c0 0-0.764179 0-2.292537 0.764179-0.764179 0-2.292537 0.764179-3.056716 0.764179l-10.698507 3.056716c-2.292537 0.764179-4.585075 1.528358-6.113433 1.528358-2.292537 0.764179-3.820896 1.528358-3.820896 1.528358l0 0c-0.764179 0-2.292537 0.764179-3.056716 0.764179C671.713433 661.779104 670.949254 661.779104 670.185075 661.779104z" p-id="5741" fill="#1296db"></path><path d="M2121.361194 287.331343c-14.519403-123.797015-132.202985-237.659701-291.916418-270.519403-91.701493-19.104478-183.402985-8.40597-259.056716 28.274627-51.964179 25.98209-91.701493 61.898507-116.155224 105.456716-16.81194 0.764179-32.859701 2.292537-48.907463 4.585075-111.570149 13.755224-178.053731 49.671642-188.752239 101.635821C1207.402985 304.143284 1245.61194 356.107463 1318.208955 405.014925c-1.528358 3.820896-3.056716 6.877612-3.820896 10.698507-15.283582 73.361194 156.656716 168.119403 389.731343 215.498507 84.059701 17.576119 165.826866 25.98209 236.131343 25.98209 22.161194 0 42.79403-0.764179 62.662687-2.292537 85.58806-7.641791 136.78806-32.095522 144.429851-68.01194 0.764179-3.820896 0.764179-7.641791 0.764179-11.462687 88.644776-16.81194 141.373134-50.435821 150.543284-95.522388C2311.641791 418.00597 2242.101493 347.701493 2121.361194 287.331343zM1458.81791 177.289552c1.528358-3.820896 3.820896-7.641791 5.349254-12.226866 3.056716-5.349254 6.113433-10.698507 9.170149-16.047761 23.689552-37.444776 58.841791-68.01194 104.692537-90.937313 48.143284-23.689552 103.928358-35.916418 162.00597-35.916418 28.274627 0 57.313433 3.056716 86.352239 9.170149 149.014925 30.567164 259.820896 133.731343 278.161194 247.59403 0.764179 6.113433 1.528358 12.991045 2.292537 19.104478 0 4.585075 0.764179 8.40597 0.764179 12.991045 0 14.519403-0.764179 29.038806-3.820896 42.79403-5.349254 27.510448-45.086567 48.143284-109.277612 56.549254-67.247761 9.170149-153.6 3.820896-242.244776-14.519403-178.81791-36.680597-318.662687-117.683582-306.435821-177.289552C1448.119403 204.8 1452.704478 191.044776 1458.81791 177.289552zM2132.059701 583.832836c-6.113433 29.038806-53.492537 48.907463-130.674627 55.785075-81.002985 6.877612-185.695522-0.764179-294.208955-23.689552-239.952239-49.671642-388.967164-142.137313-378.268657-197.922388 0-1.528358 0.764179-3.820896 1.528358-5.349254C1421.373134 470.734328 1558.925373 523.462687 1719.402985 556.322388c99.343284 20.632836 196.39403 30.567164 282.746269 30.567164 38.208955 0 74.889552-2.292537 107.749254-6.113433 7.641791-0.764179 15.283582-2.292537 22.925373-3.056716C2132.823881 580.01194 2132.823881 581.540299 2132.059701 583.832836zM2284.131343 476.083582c-7.641791 38.973134-58.077612 68.776119-139.080597 84.059701-4.585075 0.764179-9.934328 1.528358-15.283582 2.292537-6.877612 0.764179-14.519403 2.292537-21.397015 3.056716-106.985075 12.991045-243.773134 4.585075-385.146269-24.453731-155.128358-32.095522-292.680597-84.823881-382.089552-141.373134-4.585075-3.056716-8.40597-5.349254-12.991045-8.40597-66.483582-45.086567-103.164179-90.937313-94.758209-131.438806 9.170149-44.322388 73.361194-77.18209 175.761194-89.408955 12.226866-1.528358 25.21791-3.056716 38.973134-3.820896-7.641791 15.283582-12.991045 32.095522-16.047761 48.907463-3.056716 14.519403 0.764179 30.567164 10.698507 45.850746 36.680597 58.077612 155.892537 117.683582 307.964179 149.014925 61.898507 12.991045 121.504478 19.104478 175.761194 19.104478 25.21791 0 49.671642-1.528358 71.832836-4.585075 41.265672-5.349254 72.597015-16.047761 93.99403-30.567164 15.283582-10.698507 25.21791-23.689552 28.274627-38.208955 3.820896-16.81194 4.585075-34.38806 4.585075-51.2C2230.638806 361.456716 2294.065672 424.119403 2284.131343 476.083582z" p-id="5742" fill="#1296db"></path><path d="M1533.707463 442.459701c-2.292537 0-3.820896 0-6.113433-0.764179-16.047761-3.056716-26.746269-19.104478-23.689552-35.916418 1.528358-7.641791 6.113433-14.519403 12.991045-19.104478 6.877612-4.585075 14.519403-6.113433 22.925373-4.585075 16.047761 3.056716 26.746269 19.104478 23.689552 35.916418-1.528358 7.641791-6.113433 14.519403-12.991045 19.104478C1545.170149 440.167164 1539.820896 442.459701 1533.707463 442.459701zM1533.707463 397.373134c-3.056716 0-5.349254 0.764179-8.40597 2.292537-3.056716 2.292537-5.349254 5.349254-6.113433 9.170149-1.528358 8.40597 3.820896 16.047761 11.462687 17.576119 3.820896 0.764179 7.641791 0 11.462687-2.292537 3.056716-2.292537 5.349254-5.349254 6.113433-9.170149l0 0c1.528358-8.40597-3.820896-16.047761-11.462687-17.576119C1536 397.373134 1534.471642 397.373134 1533.707463 397.373134z" p-id="5743" fill="#1296db"></path><path d="M1876.823881 512.764179c-2.292537 0-3.820896 0-6.113433-0.764179-16.047761-3.056716-26.746269-19.104478-23.689552-35.916418 1.528358-7.641791 6.113433-14.519403 12.991045-19.104478 6.877612-4.585075 14.519403-6.113433 22.925373-4.585075 16.047761 3.056716 26.746269 19.104478 23.689552 35.916418l0 0c-1.528358 7.641791-6.113433 14.519403-12.991045 19.104478C1888.286567 510.471642 1882.173134 512.764179 1876.823881 512.764179zM1876.823881 467.677612c-3.056716 0-5.349254 0.764179-8.40597 2.292537-3.056716 2.292537-5.349254 5.349254-6.113433 9.170149-1.528358 8.40597 3.820896 16.047761 11.462687 17.576119 3.820896 0.764179 7.641791 0 11.462687-2.292537 3.056716-2.292537 5.349254-5.349254 6.113433-9.170149l0 0c1.528358-8.40597-3.820896-16.047761-11.462687-17.576119C1878.352239 467.677612 1877.58806 467.677612 1876.823881 467.677612z" p-id="5744" fill="#1296db"></path><path d="M1321.265672 298.029851c-2.292537 0-3.820896 0-6.113433-0.764179-16.047761-3.056716-26.746269-19.104478-23.689552-35.916418 1.528358-7.641791 6.113433-14.519403 12.991045-19.104478 6.877612-4.585075 14.519403-6.113433 22.925373-4.585075 16.047761 3.056716 26.746269 19.104478 23.689552 35.916418l0 0c-1.528358 7.641791-6.113433 14.519403-12.991045 19.104478C1332.728358 295.737313 1326.614925 298.029851 1321.265672 298.029851zM1320.501493 252.943284c-3.056716 0-5.349254 0.764179-8.40597 2.292537-3.056716 2.292537-5.349254 5.349254-6.113433 9.170149-1.528358 8.40597 3.820896 16.047761 11.462687 17.576119 3.820896 0.764179 7.641791 0 11.462687-2.292537 3.056716-2.292537 5.349254-5.349254 6.113433-9.170149l0 0c1.528358-8.40597-3.820896-16.047761-11.462687-17.576119C1322.79403 252.943284 1322.029851 252.943284 1320.501493 252.943284z" p-id="5745" fill="#1296db"></path><path d="M2199.307463 478.376119c-2.292537 0-3.820896 0-6.113433-0.764179-16.047761-3.056716-26.746269-19.104478-23.689552-35.916418 1.528358-7.641791 6.113433-14.519403 12.991045-19.104478 6.877612-4.585075 14.519403-6.113433 22.925373-4.585075 16.047761 3.056716 26.746269 19.104478 23.689552 35.916418l0 0c-1.528358 7.641791-6.113433 14.519403-12.991045 19.104478C2210.770149 476.083582 2205.420896 478.376119 2199.307463 478.376119zM2199.307463 433.289552c-3.056716 0-5.349254 0.764179-8.40597 2.292537-3.056716 2.292537-5.349254 5.349254-6.113433 9.170149-1.528358 8.40597 3.820896 16.047761 11.462687 17.576119 3.820896 0.764179 7.641791 0 11.462687-2.292537 3.056716-2.292537 5.349254-5.349254 6.113433-9.170149 1.528358-8.40597-3.820896-16.047761-11.462687-17.576119C2201.6 433.289552 2200.071642 433.289552 2199.307463 433.289552z" p-id="5746" fill="#1296db"></path><path d="M1498.555224 777.170149c-3.820896 0-6.877612-2.292537-7.641791-6.113433-0.764179-3.820896 1.528358-8.40597 5.349254-9.170149 142.137313-34.38806 174.232836-84.059701 174.232836-84.059701 2.292537-3.820896 6.877612-4.585075 10.698507-2.292537 3.820896 2.292537 4.585075 6.877612 2.292537 10.698507-1.528358 2.292537-34.38806 55.020896-183.402985 91.701493C1500.083582 777.170149 1499.319403 777.170149 1498.555224 777.170149z" p-id="5747" fill="#1296db"></path><path d="M1523.008955 618.985075c-3.820896-1.528358-8.40597 0.764179-9.934328 4.585075 0 0.764179-13.755224 40.501493-52.728358 83.295522-115.391045-18.340299-237.659701-28.274627-364.513433-29.038806-456.214925-2.292537-861.229851 117.683582-1085.134328 320.955224-3.056716 3.056716-3.056716 7.641791-0.764179 10.698507 3.056716 3.056716 7.641791 3.056716 10.698507 0.764179 301.086567-273.576119 911.665672-369.098507 1426.722388-289.623881-26.746269 25.98209-62.662687 51.2-111.570149 68.01194-3.820896 1.528358-6.113433 6.113433-4.585075 9.934328 0.764179 3.056716 3.820896 5.349254 6.877612 5.349254 0.764179 0 1.528358 0 2.292537-0.764179 56.549254-19.868657 97.050746-49.671642 125.325373-79.474627 4.585075-4.585075 8.40597-9.170149 12.226866-13.755224 35.152239-41.265672 48.143284-78.710448 48.907463-81.002985C1529.122388 624.334328 1526.829851 620.513433 1523.008955 618.985075z" p-id="5748" fill="#1296db"></path><path d="M2157.277612 1003.367164c-106.220896-100.871642-258.292537-181.874627-441.695522-237.659701 68.776119-43.558209 96.286567-87.116418 98.579104-90.173134 2.292537-3.820896 0.764179-8.40597-2.292537-10.698507-3.820896-2.292537-8.40597-0.764179-10.698507 2.292537-0.764179 0.764179-29.802985 47.379104-105.456716 91.701493-6.113433 3.820896-12.226866 6.877612-19.104478 10.698507-48.907463 25.98209-113.098507 49.671642-197.922388 61.898507-3.820896 0.764179-6.877612 4.585075-6.113433 8.40597 0.764179 3.820896 3.820896 6.877612 7.641791 6.877612 0 0 0.764179 0 0.764179 0 95.522388-13.755224 165.826866-42.029851 217.026866-71.068657 181.110448 53.492537 338.531343 132.967164 449.337313 238.423881 1.528358 1.528358 3.056716 2.292537 5.349254 2.292537 2.292537 0 3.820896-0.764179 5.349254-2.292537C2160.334328 1011.008955 2160.334328 1006.423881 2157.277612 1003.367164z" p-id="5749" fill="#1296db"></path></svg>